<svg data-name="Слой 1" viewBox="0 0 128 128" xmlns="http://www.w3.org/2000/svg"><circle cx="64" cy="49.64" r="20.55" fill="#f9c869" class="fill-000000"></circle><path d="M112.34 47.82a8.26 8.26 0 0 0-1.69-11.73l-3.5-2.54a8.26 8.26 0 0 1-3.38-7.4l.37-4.31a8.26 8.26 0 0 0-7.76-9l-4.32-.24a8.26 8.26 0 0 1-6.84-4.4l-2-3.83a8.26 8.26 0 0 0-11.39-3.3L68.07 3.2a8.26 8.26 0 0 1-8.14 0l-3.76-2.13a8.26 8.26 0 0 0-11.38 3.34l-2 3.83a8.26 8.26 0 0 1-6.84 4.4l-4.32.24a8.26 8.26 0 0 0-7.76 9l.37 4.31a8.26 8.26 0 0 1-3.38 7.4l-3.5 2.54a8.26 8.26 0 0 0-1.69 11.73l2.64 3.42a8.26 8.26 0 0 1 1.16 8.05l-1.57 4a8.26 8.26 0 0 0 4.92 10.78l4.07 1.45a8.26 8.26 0 0 1 5.33 6.15l.78 3.8-10.39 33.77 16.48-5.16L49.35 128l9.37-30.63a8.26 8.26 0 0 0 10.07.37L78.65 128l10.26-13.88 16.48 5.16-10.64-32.64c.07-.23.13-.45.18-.69l.85-4.24a8.26 8.26 0 0 1 5.33-6.15l4.07-1.45a8.26 8.26 0 0 0 4.92-10.78l-1.57-4a8.26 8.26 0 0 1 1.16-8.05Zm-76.89 1.82A28.55 28.55 0 1 1 64 78.19a28.58 28.58 0 0 1-28.55-28.55Z" fill="#f9c869" class="fill-000000"></path></svg>