<svg viewBox="0 0 128 128" xml:space="preserve" xmlns="http://www.w3.org/2000/svg" enable-background="new 0 0 128 128"><path d="M26.5 126.8h100.3V112l-11.5-21.7-6.8 3.6 10.6 20v5.2h-17l4-48H20.7l5.8 55.7zm71.3-48-3.4 40.3h-61l-4.2-40.3h68.6zM90.8 38c0-14.8-12-26.8-26.8-26.8S37.2 23.2 37.2 38s12 26.8 26.8 26.8 26.8-12 26.8-26.8zm-46 0c0-10.6 8.6-19.2 19.2-19.2S83.2 27.4 83.2 38 74.6 57.2 64 57.2 44.8 48.6 44.8 38zM19.4 94l-6.8-3.6L1.1 112v14.8H18v-7.6H8.8V114z" fill="#f9c869" class="fill-000000"></path><circle cx="63" cy="98" r="4" fill="#f9c869" class="fill-000000"></circle></svg>